<?xml version="1.0" standalone="no"?>
<!DOCTYPE svg PUBLIC "-//W3C//DTD SVG 20010904//EN"
 "http://www.w3.org/TR/2001/REC-SVG-20010904/DTD/svg10.dtd">
<svg version="1.0" xmlns="http://www.w3.org/2000/svg"
 width="512.000000pt" height="512.000000pt" viewBox="0 0 512.000000 512.000000"
 preserveAspectRatio="xMidYMid meet">
<metadata>
Created by potrace 1.14, written by Peter Selinger 2001-2017
</metadata>
<g transform="translate(0.000000,512.000000) scale(0.100000,-0.100000)"
fill="#000000" stroke="none">
<path d="M2268 4979 c-99 -11 -152 -18 -211 -30 -29 -6 -63 -12 -77 -15 -14
-3 -67 -16 -119 -30 -517 -139 -980 -454 -1308 -889 -224 -297 -399 -704 -448
-1042 -3 -21 -8 -44 -10 -51 -20 -57 -27 -511 -11 -647 39 -337 164 -693 344
-985 163 -265 363 -485 609 -669 l106 -80 2 -88 c3 -140 19 -189 83 -256 45
-47 79 -55 216 -57 90 0 112 3 128 17 17 15 22 15 41 3 17 -10 98 -14 362 -18
390 -5 351 -5 1731 0 l1042 3 38 25 c47 31 107 117 131 190 18 53 19 130 18
1778 l-1 1722 -27 28 -27 27 -178 2 c-97 1 -180 2 -183 2 -3 1 -35 40 -71 89
-93 123 -120 154 -238 272 -343 344 -787 579 -1267 669 -191 37 -495 50 -675
30z"/>
</g>
</svg>
